<svg xmlns="http://www.w3.org/2000/svg" viewBox="0 0 157.03 24.46"><defs><style>.cls-1{fill:#f36c42;}.cls-2{fill:#58595b;}</style></defs><g id="Layer_2" data-name="Layer 2"><g id="Layer_1-2" data-name="Layer 1"><path class="cls-1" d="M15.84,1.62H25.89C30.93,1.62,33,0,33,0H15.8C4,0-1.1,8,.2,15c.92,4.92,5.47,9.09,12.11,9.49a17.35,17.35,0,0,0,5.29-.62c-8.07.15-13.75-4-14.37-9.74-.76-7,4.39-12.46,12.61-12.46"/><path class="cls-1" d="M12.81,4.45c8.3-.71,12.48,4.68,11.85,10.1-.45,3.89-4.28,7-8.5,6.77a9.71,9.71,0,0,1-3.3-.81c4.76.17,8.39-3.07,8.84-7,.62-5.41-3.89-8.53-8.89-9.1"/><path class="cls-1" d="M15.57,7.29C10,6.16,7,9.94,7.38,13.53A5.39,5.39,0,0,0,13,18.07a6.74,6.74,0,0,0,2.2-.52,4.78,4.78,0,0,1-5.26-4.44c-.38-3.59,2.25-5.49,5.64-5.82"/><path class="cls-2" d="M155.35,6.12a1.66,1.66,0,1,1-1.69,1.66,1.68,1.68,0,0,1,1.69-1.66m0,3.08a1.36,1.36,0,0,0,1.36-1.42,1.36,1.36,0,1,0-2.72,0,1.36,1.36,0,0,0,1.36,1.42m-.65-2.4h.76c.45,0,.68.19.68.56a.49.49,0,0,1-.51.53l.55.86h-.34l-.54-.86H155v.86h-.33Zm.33.84h.38c.25,0,.4,0,.4-.3s-.2-.29-.4-.29H155Z"/><path class="cls-2" d="M95.4,6.38a7,7,0,0,0-1.84-.26,4,4,0,0,0-3.38,2.29h-.05v-2H87.89V19.27h2.39V13.42c0-3.22,1.4-5.23,3.54-5.23l.39,0Z"/><path class="cls-2" d="M39,8.59A7,7,0,0,0,36.39,8c-2.67,0-4.17,2.37-4.17,4.82,0,2.29,1.24,4.8,4.33,4.8a5,5,0,0,0,2.57-.73L39.3,19a7.3,7.3,0,0,1-3,.53,6.53,6.53,0,0,1-6.62-6.72,6.38,6.38,0,0,1,6.62-6.73,9.18,9.18,0,0,1,2.9.5Z"/><path class="cls-2" d="M65.84,16.75a6.53,6.53,0,0,0,3,.9c1.09,0,2.44-.45,2.44-1.83,0-2.35-5.63-2.14-5.63-5.75,0-2.67,2-3.95,4.59-3.95a10.25,10.25,0,0,1,3,.5L73,8.69A7,7,0,0,0,70.48,8c-1.22,0-2.29.51-2.29,1.56,0,2.62,5.63,1.87,5.63,6,0,2.75-2.22,4-4.54,4a7.56,7.56,0,0,1-3.57-.7Z"/><path class="cls-2" d="M76.4,7.33a8.27,8.27,0,0,1,4.28-1.21c3.72,0,5.22,1.81,5.22,5.31v5.32a20.53,20.53,0,0,0,.1,2.52H83.76V17.61h-.05a4.84,4.84,0,0,1-4,2c-2.8,0-4.77-1.21-4.77-4,0-3.23,3.57-4.24,6-4.24.94,0,1.6,0,2.54.05C83.5,9.17,82.69,8,80.3,8a6.17,6.17,0,0,0-3.77,1.31Zm7.1,5.82c-.5,0-1-.05-1.52-.05-1.3,0-4.51.2-4.51,2.47a2.28,2.28,0,0,0,2.42,2.09,3.26,3.26,0,0,0,3.61-3.38Z"/><path class="cls-2" d="M41.91,7.33a8.32,8.32,0,0,1,4.28-1.21c3.72,0,5.23,1.81,5.23,5.31v5.32a18.54,18.54,0,0,0,.1,2.52H49.27V17.61h0a4.86,4.86,0,0,1-4,2c-2.8,0-4.76-1.21-4.76-4,0-3.23,3.56-4.24,6-4.24,1,0,1.61,0,2.55.05C49,9.17,48.2,8,45.81,8A6.19,6.19,0,0,0,42,9.34ZM49,13.15c-.51,0-1-.05-1.53-.05-1.3,0-4.51.2-4.51,2.47a2.29,2.29,0,0,0,2.42,2.09A3.27,3.27,0,0,0,49,14.28Z"/><path class="cls-2" d="M119.65,6.12a6.37,6.37,0,0,1,6.6,6.72,6.61,6.61,0,1,1-13.21,0,6.37,6.37,0,0,1,6.61-6.72m0,11.53c2.81,0,4-2.51,4-4.81S122.2,8,119.65,8s-4.07,2.37-4.07,4.81,1.25,4.81,4.07,4.81"/><path class="cls-2" d="M127.54,6.42h2.31v2h.05a4.7,4.7,0,0,1,4.26-2.34c3.36,0,4.86,2.06,4.86,5.52v7.63h-2.39V12.62c0-3-.66-4.46-2.75-4.59-2.73,0-3.95,2.17-3.95,5.29v5.95h-2.39Z"/><path class="cls-2" d="M151.26,18.74a10,10,0,0,1-4.1.83c-4.61,0-6.72-2.77-6.72-7,0-3.81,2.42-6.5,6.08-6.5,4.33,0,5.73,3.12,5.73,7.25H143a4.23,4.23,0,0,0,4.28,4.28,7.74,7.74,0,0,0,4-1.28Zm-1.55-7.13c0-2-1.17-3.58-3.24-3.58-2.34,0-3.31,1.92-3.49,3.58Z"/><path class="cls-2" d="M63.61,18.74a10,10,0,0,1-4.1.83c-4.6,0-6.72-2.77-6.72-7,0-3.81,2.42-6.5,6.08-6.5,4.34,0,5.74,3.12,5.74,7.25H55.34a4.22,4.22,0,0,0,4.28,4.28,7.7,7.7,0,0,0,4-1.28Zm-1.55-7.13c0-2-1.17-3.58-3.23-3.58-2.35,0-3.32,1.92-3.49,3.58Z"/><path class="cls-2" d="M111.37,17.66a2,2,0,0,1-2-2.29v-7h3.44V6.42h-3.44v-2L107,4.85V6.42h-6.79c-.48,0-4.48-.35-4.49,3.66,0,3.6,5.62,3.4,5.62,5.74,0,1.39-1.34,1.84-2.44,1.84a6.34,6.34,0,0,1-3-.91l-.13,2.12a7.5,7.5,0,0,0,3.56.7c2.31,0,4.52-1.26,4.53-4,0-4.12-5.73-3.39-5.62-6,0-1.15,1.29-1.18,2.18-1.21H107v7.51c0,2.56,1.53,3.72,4,3.72a7.72,7.72,0,0,0,2-.35v-2a3.09,3.09,0,0,1-1.64.45"/></g></g></svg>